<?xml version="1.0" encoding="utf-8"?>

<!DOCTYPE svg PUBLIC "-//W3C//DTD SVG 1.1//EN" "http://www.w3.org/Graphics/SVG/1.1/DTD/svg11.dtd">
<!-- Uploaded to: SVG Repo, www.svgrepo.com, Generator: SVG Repo Mixer Tools -->
<svg height="800px" width="800px" version="1.1" id="_x32_" xmlns="http://www.w3.org/2000/svg" xmlns:xlink="http://www.w3.org/1999/xlink" 
	 viewBox="0 0 512 512"  xml:space="preserve">
<style type="text/css">
	.st0{fill:#000000;}
</style>
<g>
	<path class="st0" d="M508.112,236.074c-3.206-2.717-7.682-3.364-11.52-1.668l-28.206,12.446
		c-14.667-46.552-43.096-86.975-80.565-116.432c-40.739-32.058-92.228-51.202-148.08-51.195C107.327,79.234,0.007,186.554,0,318.96
		c0,3.061,1.272,5.979,3.514,8.049c2.242,2.084,5.246,3.133,8.293,2.903l111.229-8.408c5.914-0.445,10.405-5.504,10.147-11.426
		c-0.043-0.906-0.065-1.826-0.065-2.76c-0.014-10.362,2.479-22.788,6.719-35.486c6.331-19.065,16.514-38.777,26.682-54.155
		c5.074-7.69,10.147-14.316,14.574-19.173c2.199-2.429,4.24-4.412,5.943-5.836c0.668-0.574,1.272-1.02,1.811-1.408
		c39.086,0.647,74.608,14.186,101.764,36.082c25.62,20.675,43.692,48.658,50.526,80.192l-46.336,20.251
		c-3.852,1.682-6.404,5.425-6.576,9.623c-0.166,4.204,2.084,8.128,5.792,10.125l156.697,83.936c2.968,1.595,6.525,1.739,9.607,0.374
		c3.09-1.351,5.383-4.068,6.216-7.337l45.123-177.342C512.696,243.088,511.316,238.79,508.112,236.074z M448.717,405.489
		l-124.394-66.638l33.61-14.689c4.556-1.991,7.207-6.784,6.46-11.7c-6.173-40.753-28.271-76.634-59.998-102.217
		c-31.734-25.584-73.192-41.005-118.422-41.005c-0.108,0-0.208,0.015-0.309,0.015c-0.044,0-0.086,0-0.13,0
		c-24.569,0.05-48.025,4.642-69.405,12.949c-5.656,2.2-8.451,8.559-6.252,14.215c2.191,5.648,8.551,8.451,14.214,6.259
		c10.305-4.017,21.2-7.007,32.511-8.947c-1.861,2.444-3.737,4.995-5.62,7.704c-9.78,14.179-19.575,31.749-27.063,50.182
		c-6.511,16.097-11.333,32.777-12.49,48.744l-89.138,6.733c2.983-55.435,26.64-105.293,63.455-142.123
		c39.438-39.431,93.816-63.784,153.994-63.784c50.806,0,97.453,17.362,134.505,46.488c37.045,29.14,64.403,70.03,76.447,117.013
		c0.798,3.119,2.946,5.734,5.843,7.143c2.896,1.409,6.288,1.466,9.227,0.173l19.058-8.408L448.717,405.489z"/>
</g>
</svg>